<svg width="15" height="18" viewBox="0 0 15 18" fill="none"
    xmlns="http://www.w3.org/2000/svg">
    <path d="M7.13243 10.7024L6.00544 13.1051L4.89953 10.7094C4.77287 10.435 4.5511 10.2158 4.27526 10.0923L1.8359 9.00052L4.27526 7.90873C4.5511 7.78527 4.77287 7.56606 4.89953 7.29168L6.00544 4.89589L7.13243 7.2986C7.25915 7.56876 7.47834 7.78468 7.75038 7.90733L10.1752 9.00052L7.75038 10.0937C7.47834 10.2164 7.25915 10.4323 7.13243 10.7024ZM5.77729 13.5916C5.77736 13.5914 5.77743 13.5913 5.77749 13.5911L5.77729 13.5916Z" stroke="#B04425" stroke-width="1.5"/>
    <path d="M12.8665 4.21187L12.4563 5.08629C12.2758 5.47115 11.7278 5.46947 11.5497 5.08351L11.1486 4.21463C11.0979 4.10488 11.0092 4.0172 10.8989 3.96781L10.0197 3.57431C9.62535 3.39782 9.62535 2.83805 10.0197 2.66156L10.8989 2.26806C11.0092 2.21867 11.0979 2.13099 11.1486 2.02124L11.5497 1.15236C11.7278 0.766398 12.2758 0.764721 12.4563 1.14958L12.8665 2.024C12.9171 2.13206 13.0048 2.21843 13.1136 2.26749L13.989 2.66212C14.3816 2.83915 14.3816 3.39672 13.989 3.57375L13.1136 3.96838C13.0048 4.01744 12.9171 4.10381 12.8665 4.21187Z" fill="#B04425"/>
    <path d="M12.8665 15.9765L12.4563 16.8509C12.2758 17.2358 11.7278 17.2341 11.5497 16.8482L11.1486 15.9793C11.0979 15.8695 11.0092 15.7818 10.8989 15.7325L10.0197 15.339C9.62535 15.1625 9.62535 14.6027 10.0197 14.4262L10.8989 14.0327C11.0092 13.9833 11.0979 13.8956 11.1486 13.7859L11.5497 12.917C11.7278 12.531 12.2758 12.5294 12.4563 12.9142L12.8665 13.7886C12.9171 13.8967 13.0048 13.9831 13.1136 14.0321L13.989 14.4268C14.3816 14.6038 14.3816 15.1614 13.989 15.3384L13.1136 15.733C13.0048 15.7821 12.9171 15.8685 12.8665 15.9765Z" fill="#B04425"/>
</svg>
