<svg width="23" height="25" viewBox="0 0 23 25" fill="none"
    xmlns="http://www.w3.org/2000/svg">
    <path d="M18.1204 0H4.87964C2.1845 0 0 2.37446 0 5.30395V19.696C0 22.6255 2.1845 25 4.87964 25H18.1204C20.8155 25 23 22.6255 23 19.696V5.30395C23 2.37446 20.8155 0 18.1204 0ZM18.9072 8.68502L13.5285 14.5314C13.2171 14.87 12.7119 14.87 12.3999 14.5314L10.1951 12.1349L5.22134 17.5411C5.06562 17.7104 4.86148 17.7953 4.65734 17.7953C4.45319 17.7953 4.24905 17.7104 4.09333 17.5411C3.78188 17.2026 3.78188 16.6535 4.09333 16.3144L9.63107 10.2951C9.78074 10.1324 9.98378 10.0409 10.1951 10.0409C10.4064 10.0409 10.6094 10.1324 10.7591 10.2951L12.9639 12.6917L17.7787 7.45831C18.0901 7.11979 18.5952 7.11979 18.9072 7.45831C19.2192 7.79684 19.2187 8.34589 18.9072 8.68502Z" fill="#231F1F"/>
</svg>
