<svg width="8" height="6" viewBox="0 0 8 6" fill="none"
    xmlns="http://www.w3.org/2000/svg">
    <path d="M7.3255 4.98795C7.36366 5.02402 7.40856 5.05221 7.45762 5.07093C7.50668 5.08964 7.55895 5.09851 7.61144 5.09703C7.66393 5.09554 7.71562 5.08373 7.76354 5.06227C7.81147 5.04082 7.8547 5.01013 7.89076 4.97196C7.92683 4.93379 7.95503 4.8889 7.97374 4.83984C7.99246 4.79077 8.00132 4.7385 7.99984 4.68601C7.99836 4.63352 7.98655 4.58184 7.96509 4.53392C7.94363 4.48599 7.91294 4.44276 7.87477 4.40669L4.27689 1.00869C4.20266 0.938514 4.10439 0.899414 4.00225 0.899414C3.9001 0.899414 3.80183 0.938514 3.72761 1.00869L0.12932 4.40669C0.0903182 4.44252 0.0588236 4.48574 0.0366669 4.53384C0.0145102 4.58195 0.00213242 4.63397 0.00025177 4.6869C-0.00162888 4.73983 0.00702667 4.7926 0.0257139 4.84215C0.0444007 4.89171 0.0727477 4.93705 0.109108 4.97556C0.145469 5.01406 0.189118 5.04496 0.23752 5.06645C0.285923 5.08795 0.338113 5.09961 0.391061 5.10076C0.444008 5.10192 0.496657 5.09254 0.54595 5.07317C0.595242 5.05381 0.640194 5.02484 0.678197 4.98795L4.00225 1.84899L7.3255 4.98795Z" fill="#71717A"/>
</svg>
