<svg width="8" height="6" viewBox="0 0 8 6" fill="none" xmlns="http://www.w3.org/2000/svg">
<path d="M0.674504 1.01205C0.636338 0.975982 0.591442 0.947787 0.542379 0.929072C0.493316 0.910357 0.441048 0.901488 0.388558 0.902973C0.336068 0.904458 0.284384 0.916267 0.236458 0.937726C0.188532 0.959185 0.145302 0.989873 0.109236 1.02804C0.0731694 1.06621 0.0449739 1.1111 0.0262587 1.16016C0.00754345 1.20923 -0.00132496 1.2615 0.000159907 1.31399C0.00164477 1.36648 0.0134538 1.41816 0.0349127 1.46608C0.0563716 1.51401 0.0870601 1.55724 0.125226 1.59331L3.72311 4.99131C3.79734 5.06149 3.89561 5.10059 3.99775 5.10059C4.0999 5.10059 4.19817 5.06149 4.27239 4.99131L7.87068 1.59331C7.90968 1.55748 7.94118 1.51426 7.96333 1.46616C7.98549 1.41805 7.99787 1.36603 7.99975 1.3131C8.00163 1.26017 7.99297 1.2074 7.97429 1.15785C7.9556 1.10829 7.92725 1.06295 7.89089 1.02444C7.85453 0.985937 7.81088 0.95504 7.76248 0.933546C7.71408 0.912052 7.66189 0.90039 7.60894 0.899237C7.55599 0.898084 7.50334 0.907463 7.45405 0.926828C7.40476 0.946195 7.35981 0.975163 7.3218 1.01205L3.99775 4.15101L0.674504 1.01205Z" fill="#71717A"/>
</svg>
