<svg width="12" height="12" viewBox="0 0 12 12" fill="none"
    xmlns="http://www.w3.org/2000/svg">
    <path d="M1.999 4.5V0.7C1.999 0.589543 2.08854 0.5 2.199 0.5H9.16716C9.2202 0.5 9.27107 0.521071 9.30858 0.558579L10.9414 2.19142C10.9789 2.22893 11 2.2798 11 2.33284V11.3C11 11.4105 10.9105 11.5 10.8 11.5H1.5M8.5 0.5V2.8C8.5 2.91046 8.58954 3 8.7 3H11M7.75 9.5V6.2C7.75 6.08954 7.83954 6 7.95 6H9.75M7.75 7.75H9.25M1.75 6H1.2C1.08954 6 1 6.08954 1 6.2V8.9375C1 8.97202 1.02798 9 1.0625 9V9C1.09702 9 1.125 8.97202 1.125 8.9375V8.2C1.125 8.08954 1.21454 8 1.325 8H1.75C2.75 8 2.875 7.375 2.875 7C2.875 6.625 2.75 6 1.75 6ZM5.1025 6H4.45C4.33954 6 4.25 6.08954 4.25 6.2V8.8C4.25 8.91046 4.33954 9 4.45 9H5.1025C5.671 9 6.25 8.75 6.25 7.5C6.25 6.25 5.671 6 5.1025 6Z" stroke="#3F3F46"/>
</svg>
