<svg width="16" height="12" viewBox="0 0 16 12" fill="none"
    xmlns="http://www.w3.org/2000/svg">
    <path d="M3.05027 10.9503C2.40025 10.3002 1.88463 9.52857 1.53285 8.6793C1.18106 7.83002 1 6.91977 1 6.00052C1 5.08126 1.18106 4.17101 1.53285 3.32174C1.88463 2.47246 2.40025 1.70079 3.05027 1.05078M12.9497 1.05078C13.5997 1.70079 14.1154 2.47246 14.4672 3.32174C14.8189 4.17101 15 5.08126 15 6.00052C15 6.91977 14.8189 7.83002 14.4672 8.6793C14.1154 9.52857 13.5997 10.3002 12.9497 10.9503M5.2498 8.75071C4.88858 8.38959 4.60204 7.96084 4.40654 7.48895C4.21104 7.01707 4.11042 6.51129 4.11042 6.00052C4.11042 5.48974 4.21104 4.98396 4.40654 4.51208C4.60204 4.04019 4.88858 3.61144 5.2498 3.25032M10.7502 3.25032C11.1114 3.61144 11.398 4.04019 11.5935 4.51208C11.789 4.98396 11.8896 5.48974 11.8896 6.00052C11.8896 6.51129 11.789 7.01707 11.5935 7.48895C11.398 7.96084 11.1114 8.38959 10.7502 8.75071M8.77777 6.00052C8.77777 6.20679 8.69583 6.40462 8.54997 6.55048C8.40411 6.69634 8.20628 6.77829 8 6.77829C7.79372 6.77829 7.59589 6.69634 7.45003 6.55048C7.30417 6.40462 7.22223 6.20679 7.22223 6.00052C7.22223 5.79424 7.30417 5.59641 7.45003 5.45055C7.59589 5.30469 7.79372 5.22275 8 5.22275C8.20628 5.22275 8.40411 5.30469 8.54997 5.45055C8.69583 5.59641 8.77777 5.79424 8.77777 6.00052Z" stroke="#16A34A" stroke-linecap="round" stroke-linejoin="round"/>
</svg>
