<svg width="17" height="20" viewBox="0 0 17 20" fill="none"
    xmlns="http://www.w3.org/2000/svg">
    <path d="M8.18443 11.9486L6.80544 14.8886L5.45153 11.9556C5.32487 11.6812 5.1031 11.462 4.82726 11.3385L1.8359 9.99967L4.82726 8.66083L4.52087 7.97627L4.82726 8.66083C5.1031 8.53737 5.32487 8.31816 5.45153 8.04378L4.77058 7.72945L5.45153 8.04378L6.80544 5.11074L8.18443 8.0507C8.31115 8.32086 8.53034 8.53678 8.80238 8.65942L11.7752 9.99967L8.80238 11.3399L9.11063 12.0237L8.80238 11.3399C8.53034 11.4626 8.31115 11.6785 8.18443 11.9486ZM6.57729 15.375C6.57736 15.3749 6.57743 15.3747 6.57749 15.3746L6.57729 15.375Z" stroke="#71717A" stroke-width="1.5"/>
    <path d="M14.5924 4.5508L14.0563 5.69384C13.8757 6.0787 13.3278 6.07703 13.1496 5.69107L12.6245 4.55356C12.5739 4.44381 12.4852 4.35612 12.3748 4.30674L11.2196 3.78971C10.8253 3.61322 10.8253 3.05344 11.2196 2.87696L12.3748 2.35993C12.4852 2.31054 12.5739 2.22286 12.6245 2.11311L13.1496 0.975598C13.3278 0.58964 13.8757 0.587963 14.0563 0.972823L14.5924 2.11587C14.6431 2.22393 14.7308 2.3103 14.8396 2.35936L15.9889 2.87752C16.3816 3.05454 16.3816 3.61212 15.9889 3.78915L14.8396 4.30731C14.7308 4.35637 14.6431 4.44273 14.5924 4.5508Z" fill="#71717A"/>
    <path d="M14.5924 17.8838L14.0563 19.0269C13.8757 19.4117 13.3278 19.41 13.1496 19.0241L12.6245 17.8866C12.5739 17.7768 12.4852 17.6891 12.3748 17.6397L11.2196 17.1227C10.8253 16.9462 10.8253 16.3865 11.2196 16.21L12.3748 15.6929C12.4852 15.6436 12.5739 15.5559 12.6245 15.4461L13.1496 14.3086C13.3278 13.9226 13.8757 13.921 14.0563 14.3058L14.5924 15.4489C14.6431 15.5569 14.7308 15.6433 14.8396 15.6924L15.9889 16.2105C16.3816 16.3876 16.3816 16.9451 15.9889 17.1222L14.8396 17.6403C14.7308 17.6894 14.6431 17.7757 14.5924 17.8838Z" fill="#71717A"/>
</svg>
