<svg width="16" height="14" viewBox="0 0 16 14" fill="none"
    xmlns="http://www.w3.org/2000/svg">
    <path fill-rule="evenodd" clip-rule="evenodd" d="M13.0315 1.53558V4.03392C13.3335 4.03392 13.6326 4.0934 13.9116 4.20898C14.1906 4.32455 14.4441 4.49395 14.6577 4.70751C14.8712 4.92106 15.0406 5.17459 15.1562 5.45361C15.2718 5.73263 15.3313 6.03169 15.3313 6.3337C15.3313 6.63571 15.2718 6.93477 15.1562 7.21379C15.0406 7.49281 14.8712 7.74634 14.6577 7.9599C14.4441 8.17345 14.1906 8.34285 13.9116 8.45843C13.6326 8.574 13.3335 8.63349 13.0315 8.63349V10.9333C13.0315 12.1966 11.5895 12.918 10.5784 12.1598L8.99921 10.9747C8.15508 10.3417 7.17222 9.91916 6.13214 9.74198V11.9222C6.13223 12.4233 5.95115 12.9076 5.62228 13.2858C5.29342 13.6639 4.83894 13.9105 4.34262 13.9799C3.8463 14.0494 3.3416 13.9371 2.92155 13.6638C2.50151 13.3904 2.19443 12.9744 2.05693 12.4925L0.853372 8.27932C0.42026 7.76784 0.138397 7.14569 0.0394683 6.48281C-0.0594608 5.81993 0.0284651 5.14259 0.293363 4.52694C0.55826 3.91129 0.989628 3.38173 1.53898 2.99778C2.08832 2.61384 2.73388 2.39073 3.40307 2.35354L5.71665 2.22475C6.84862 2.16176 7.94947 1.83098 8.92868 1.25961L10.7256 0.210909C11.7482 -0.384735 13.0315 0.351963 13.0315 1.53558ZM2.78519 9.45988L3.53109 12.0717C3.56698 12.1981 3.64741 12.3073 3.75752 12.379C3.86763 12.4508 3.99998 12.4802 4.13013 12.462C4.26028 12.4438 4.37945 12.3791 4.46562 12.2799C4.55179 12.1807 4.59915 12.0536 4.59895 11.9222V9.61473L3.40307 9.54803C3.19495 9.53649 2.98823 9.50699 2.78519 9.45988ZM11.4983 1.53558L9.70064 2.58505C8.60853 3.22167 7.39075 3.61251 6.13214 3.73035V8.19116C7.50205 8.37974 8.80603 8.91406 9.91912 9.74812L11.4983 10.9333V1.53558ZM4.59895 3.82234L3.48739 3.88366C2.97028 3.91222 2.48267 4.13359 2.12079 4.50409C1.75892 4.87458 1.5491 5.36728 1.53273 5.88492C1.51636 6.40255 1.69465 6.90752 2.03239 7.30014C2.37014 7.69275 2.8428 7.94448 3.35707 8.00564L3.48739 8.01714L4.59895 8.07847V3.82234ZM13.0315 5.56711V7.1003C13.2269 7.10008 13.4148 7.02526 13.5569 6.89113C13.699 6.757 13.7845 6.57368 13.7959 6.37863C13.8074 6.18357 13.7439 5.99151 13.6185 5.84168C13.4931 5.69184 13.3152 5.59555 13.1212 5.57247L13.0315 5.56711Z" fill="#71717A"/>
</svg>
