<svg width="16" height="16" viewBox="0 0 16 16" fill="none" xmlns="http://www.w3.org/2000/svg">
<path d="M8.80009 0.798828C9.20379 0.7987 9.59263 0.95117 9.88865 1.22567C10.1847 1.50018 10.366 1.87642 10.3963 2.27899L10.4003 2.39901V5.59936H12.8005C13.2042 5.59923 13.5931 5.7517 13.8891 6.0262C14.1851 6.30071 14.3664 6.67696 14.3967 7.07952L14.4007 7.19954V13.6002H15.2008C15.4047 13.6005 15.6009 13.6786 15.7492 13.8185C15.8974 13.9585 15.9867 14.1499 15.9986 14.3534C16.0106 14.557 15.9443 14.7575 15.8135 14.9139C15.6826 15.0702 15.4969 15.1707 15.2944 15.1948L15.2008 15.2004H0.799202C0.595276 15.2002 0.399132 15.1221 0.250847 14.9821C0.102562 14.8421 0.0133272 14.6508 0.00137618 14.4472C-0.0105748 14.2436 0.0556596 14.0432 0.186546 13.8868C0.317433 13.7304 0.503093 13.6299 0.705592 13.6058L0.799202 13.6002H1.59929V2.39901C1.59916 1.9953 1.75163 1.60646 2.02614 1.31045C2.30064 1.01443 2.67689 0.833107 3.07945 0.802829L3.19947 0.798828H8.80009ZM12.8005 7.19954H10.4003V13.6002H12.8005V7.19954ZM8.80009 2.39901H3.19947V13.6002H8.80009V2.39901ZM7.19991 10.3999V12.0001H4.79965V10.3999H7.19991ZM7.19991 7.19954V8.79972H4.79965V7.19954H7.19991ZM7.19991 3.99918V5.59936H4.79965V3.99918H7.19991Z" fill="#71717A"/>
</svg>
