<svg width="14" height="15" viewBox="0 0 14 15" fill="none"
    xmlns="http://www.w3.org/2000/svg">
    <path d="M10.625 14L8.04182 11.4168M8.04182 11.4168C8.8154 10.6432 9.25 9.59402 9.25 8.5C9.25 7.40598 8.8154 6.35677 8.04182 5.58318C7.26823 4.8096 6.21902 4.375 5.125 4.375C4.5833 4.375 4.0469 4.4817 3.54643 4.689C3.04596 4.8963 2.59123 5.20014 2.20818 5.58318C1.82514 5.96623 1.5213 6.42096 1.314 6.92143C1.1067 7.4219 1 7.9583 1 8.5C1 9.0417 1.1067 9.5781 1.314 10.0786C1.5213 10.579 1.82514 11.0338 2.20818 11.4168C2.59123 11.7999 3.04596 12.1037 3.54643 12.311C4.0469 12.5183 4.5833 12.625 5.125 12.625C6.21902 12.625 7.26823 12.1904 8.04182 11.4168Z" stroke="#71717A" stroke-width="1.5" stroke-linecap="round"/>
    <path d="M12.9947 2.2131L11.7049 1.58377C11.6896 1.57611 11.6818 1.56058 11.6739 1.54505L11.0369 0.255325C10.928 0.0300167 10.6484 -0.0633878 10.4229 0.0453289C10.3315 0.0900479 10.2577 0.163943 10.2131 0.255325L9.57611 1.54505C9.56763 1.55935 9.55717 1.57238 9.54505 1.58377L8.25533 2.22098C8.03002 2.32969 7.93661 2.60947 8.04533 2.83478C8.09015 2.9261 8.16401 2.99996 8.25533 3.04477L9.54505 3.67389C9.56036 3.68176 9.56824 3.69729 9.57611 3.70495L10.221 4.99468C10.3297 5.21998 10.6095 5.31339 10.8348 5.20467C10.9261 5.15995 10.9999 5.08606 11.0446 4.99468L11.6739 3.70495C11.6818 3.68964 11.6973 3.67389 11.7049 3.67389L12.9947 3.0369C13.22 2.92796 13.3134 2.64841 13.2047 2.4231C13.1657 2.32969 13.0881 2.25991 12.9947 2.2131ZM12.0392 2.30651L11.4409 2.82712C11.3243 2.93584 11.2388 3.07562 11.2077 3.23115L11.0524 4.00791C11.0446 4.03919 11.0135 4.0626 10.9824 4.05472C10.9669 4.05472 10.959 4.04685 10.9514 4.03132L10.4308 3.43305C10.322 3.31646 10.182 3.23115 10.0267 3.19986L9.24974 3.04455C9.21868 3.0369 9.19528 3.00562 9.20315 2.97456C9.20315 2.95924 9.21081 2.95137 9.22634 2.94349L9.82461 2.42288C9.9412 2.31416 10.0267 2.17438 10.0578 2.01886L10.2131 1.24209C10.221 1.21081 10.252 1.1874 10.2831 1.19528C10.2948 1.19722 10.3056 1.20263 10.3142 1.21081L10.8348 1.80908C10.9435 1.92567 11.0835 2.0112 11.2388 2.04226L12.0158 2.19757C12.0468 2.20545 12.0703 2.23651 12.0624 2.26757C12.0584 2.28245 12.0504 2.29593 12.0392 2.30651Z" fill="#71717A"/>
</svg>
